<svg preserveAspectRatio="none" width="100%" height="100%" overflow="visible" style="display: block;" viewBox="0 0 24 24" fill="none" xmlns="http://www.w3.org/2000/svg">
<g id="[SVG][Mattle.fun] - Logo - Mark">
<g id="Union">
<path d="M6.6 0C6.48954 0 6.4 0.0895432 6.4 0.2V0.6C6.4 0.710457 6.31046 0.8 6.2 0.8H4.2C4.08954 0.8 4 0.889543 4 1V3C4 3.11046 3.91046 3.2 3.8 3.2H1.8C1.68954 3.2 1.6 3.28954 1.6 3.4V7.8C1.6 7.91046 1.68954 8 1.8 8H3.8C3.91046 8 4 7.91046 4 7.8V5.8C4 5.68954 4.08954 5.6 4.2 5.6H7C7.11046 5.6 7.2 5.51046 7.2 5.4V3.4C7.2 3.28954 7.28954 3.2 7.4 3.2H9.4C9.51046 3.2 9.6 3.28954 9.6 3.4V5.4C9.6 5.51046 9.68954 5.6 9.8 5.6H21.4C21.5105 5.6 21.6 5.51046 21.6 5.4V3.4C21.6 3.28954 21.5105 3.2 21.4 3.2H19.4C19.2895 3.2 19.2 3.11046 19.2 3V1C19.2 0.889543 19.1105 0.8 19 0.8H17C16.8895 0.8 16.8 0.710457 16.8 0.6V0.2C16.8 0.089543 16.7105 0 16.6 0H6.6Z" fill="var(--fill-0, #F0E9CF)"/>
<path d="M5.8 7.2C5.68954 7.2 5.6 7.28954 5.6 7.4V8.6C5.6 8.71046 5.51046 8.8 5.4 8.8H4.2C4.08954 8.8 4 8.88954 4 9V9.4C4 9.51046 3.91046 9.6 3.8 9.6H0.2C0.0895431 9.6 0 9.68954 0 9.8V12.6C0 12.7105 0.0895431 12.8 0.2 12.8H3.8C3.91046 12.8 4 12.7105 4 12.6V11.4C4 11.2895 4.08954 11.2 4.2 11.2H6.2C6.31046 11.2 6.4 11.1105 6.4 11V9.8C6.4 9.68954 6.48954 9.6 6.6 9.6H23.8C23.9105 9.6 24 9.51046 24 9.4V7.4C24 7.28954 23.9105 7.2 23.8 7.2H5.8Z" fill="var(--fill-0, #F0E9CF)"/>
<path fill-rule="evenodd" clip-rule="evenodd" d="M5.4 14.4C5.51046 14.4 5.6 14.3105 5.6 14.2V13.8C5.6 13.6895 5.68954 13.6 5.8 13.6H7.8C7.91046 13.6 8 13.5105 8 13.4V11.4C8 11.2895 8.08954 11.2 8.2 11.2H14.2C14.3105 11.2 14.4 11.2895 14.4 11.4V15C14.4 15.1105 14.4895 15.2 14.6 15.2H16.6C16.7105 15.2 16.8 15.1105 16.8 15V11.4C16.8 11.2895 16.8895 11.2 17 11.2H22.2C22.3105 11.2 22.4 11.2895 22.4 11.4V15C22.4 15.1105 22.4895 15.2 22.6 15.2H23.8C23.9105 15.2 24 15.2895 24 15.4V20.6C24 20.7105 23.9105 20.8 23.8 20.8H22.6C22.4895 20.8 22.4 20.8895 22.4 21V22.2C22.4 22.3105 22.3105 22.4 22.2 22.4H19.4C19.2895 22.4 19.2 22.4895 19.2 22.6V23.8C19.2 23.9105 19.1105 24 19 24H9.8C9.68954 24 9.6 23.9105 9.6 23.8V22.6C9.6 22.4895 9.51046 22.4 9.4 22.4H5.8C5.68954 22.4 5.6 22.3105 5.6 22.2V21C5.6 20.8895 5.51046 20.8 5.4 20.8H4.2C4.08954 20.8 4 20.7105 4 20.6V17.8C4 17.6895 3.91046 17.6 3.8 17.6H1C0.889543 17.6 0.8 17.5105 0.8 17.4V14.6C0.8 14.4895 0.889543 14.4 1 14.4H5.4ZM7.2 18.2C7.2 18.3105 7.28954 18.4 7.4 18.4H8.6C8.71046 18.4 8.8 18.4895 8.8 18.6V19.8C8.8 19.9105 8.88954 20 9 20H20.6C20.7105 20 20.8 19.9105 20.8 19.8V19.4C20.8 19.2895 20.8895 19.2 21 19.2H21.4C21.5105 19.2 21.6 19.1105 21.6 19V17.8C21.6 17.6895 21.5105 17.6 21.4 17.6H20.2C20.0895 17.6 20 17.6895 20 17.8V18.2C20 18.3105 19.9105 18.4 19.8 18.4H9.8C9.68954 18.4 9.6 18.3105 9.6 18.2V17C9.6 16.8895 9.51046 16.8 9.4 16.8H7.4C7.28954 16.8 7.2 16.8895 7.2 17V18.2ZM12.8 13C12.8 12.8895 12.7105 12.8 12.6 12.8H10.6C10.4895 12.8 10.4 12.8895 10.4 13V15C10.4 15.1105 10.4895 15.2 10.6 15.2H12.6C12.7105 15.2 12.8 15.1105 12.8 15V13ZM18.6 15.2C18.4895 15.2 18.4 15.1105 18.4 15V13C18.4 12.8895 18.4895 12.8 18.6 12.8H20.6C20.7105 12.8 20.8 12.8895 20.8 13V15C20.8 15.1105 20.7105 15.2 20.6 15.2H18.6Z" fill="var(--fill-0, #F0E9CF)"/>
</g>
</g>
</svg>
